<?xml version="1.0" encoding="utf-8"?>
<!-- Generator: Adobe Illustrator 23.0.6, SVG Export Plug-In . SVG Version: 6.00 Build 0)  -->
<svg version="1.1" id="Layer_1" xmlns="http://www.w3.org/2000/svg" xmlns:xlink="http://www.w3.org/1999/xlink" x="0px" y="0px"
	 viewBox="0 0 22.8 36.4" style="enable-background:new 0 0 22.8 36.4;" xml:space="preserve">
<style type="text/css">
	.st0{fill:none;stroke:#FFFFFF;stroke-width:1.5;stroke-miterlimit:10;}
	.st1{fill:#FFFFFF;}
	.st2{font-family:'Avenir-Light';}
	.st3{font-size:6px;}
</style>
<title>tAsset 17</title>
<path class="st0" d="M20.6,14.7l-7.4-9.9c-0.8-1-2.2-1.2-3.2-0.5C9.8,4.4,9.7,4.6,9.5,4.7l-7.4,9.9c-0.8,1-0.5,2.5,0.5,3.2
	c0.3,0.3,0.7,0.4,1.2,0.4v5.7c0,1.1,0.9,2,2,2c0,0,0,0,0,0h5.6l0,0v-6c0-0.5,0.4-0.8,0.8-0.9h3.4c0.5,0,0.9,0.4,0.9,0.9l0,0v6l0,0
	H17c1.1,0,2-0.9,2-2v-5.7c1.3-0.1,2.2-1.3,2.1-2.5C21,15.4,20.9,15,20.6,14.7z"/>
<text transform="matrix(1.0119 0 0 1 1.9412 33.2152)" class="st1 st2 st3">HOME</text>
</svg>
