<?xml version="1.0" encoding="utf-8"?>
<!-- Generator: Adobe Illustrator 23.0.6, SVG Export Plug-In . SVG Version: 6.00 Build 0)  -->
<svg version="1.1" id="Layer_1" xmlns="http://www.w3.org/2000/svg" xmlns:xlink="http://www.w3.org/1999/xlink" x="0px" y="0px"
	 viewBox="0 0 26.5 35.9" style="enable-background:new 0 0 26.5 35.9;" xml:space="preserve">
<style type="text/css">
	.st0{fill:#FFFFFF;}
	.st1{font-family:'Avenir-Light';}
	.st2{font-size:6px;}
</style>
<text transform="matrix(1 0 0 1 0.6215 33.3979)" class="st0 st1 st2">GALLERY</text>
<path class="st0" d="M21.5,4H5C3.4,4,2.2,5.3,2.2,6.8v16.5c0,1.5,1.2,2.8,2.8,2.8h16.5c1.5,0,2.8-1.2,2.8-2.8V6.8
	C24.3,5.3,23,4,21.5,4z M5,5.9h16.5c0.5,0,0.9,0.4,0.9,0.9v6.5l-3-3c-0.4-0.4-0.9-0.4-1.3,0l-6.5,6.5l-2.3-2.3
	c-0.4-0.4-0.9-0.4-1.3,0L4,18.4V6.8C4,6.3,4.5,5.9,5,5.9z M21.5,24.3H5c-0.5,0-0.9-0.4-0.9-0.9V21l4.6-4.6l5.3,5.3
	c0.2,0.2,0.4,0.3,0.6,0.3c0.2,0,0.5-0.1,0.6-0.3c0.4-0.4,0.4-0.9,0-1.3l-2.3-2.3l5.8-5.8l3.7,3.7v7.4C22.4,23.8,22,24.3,21.5,24.3z"
	/>
<path class="st0" d="M9.6,9.6c0,1-0.8,1.8-1.8,1.8s-1.8-0.8-1.8-1.8s0.8-1.8,1.8-1.8S9.6,8.5,9.6,9.6z"/>
</svg>
