<?xml version="1.0" encoding="utf-8"?>
<!-- Generator: Adobe Illustrator 23.0.6, SVG Export Plug-In . SVG Version: 6.00 Build 0)  -->
<svg version="1.1" id="Layer_1" xmlns="http://www.w3.org/2000/svg" xmlns:xlink="http://www.w3.org/1999/xlink" x="0px" y="0px"
	 viewBox="0 0 28.8 36.4" style="enable-background:new 0 0 28.8 36.4;" xml:space="preserve">
<style type="text/css">
	.st0{fill:#FFFFFF;}
	.st1{font-family:'Avenir-Light';}
	.st2{font-size:6px;}
</style>
<title>tAsset 20</title>
<text transform="matrix(1 0 0 1 -2.136230e-04 33.5697)" class="st0 st1 st2">CONTACT</text>
<path class="st0" d="M17.9,13.2c-0.3-0.3-0.8-0.3-1.1,0l-1.5,1.5c-0.9-0.4-2.4-1.9-2.8-2.8l1.5-1.5c0.3-0.3,0.3-0.8,0-1.1l-3.1-3.1
	c-0.3-0.3-0.8-0.3-1.1,0L8.1,7.9c-0.8,0.8-0.9,2.2-0.3,3.9c1.9,4.9,8.9,9.9,11.5,7.3l1.7-1.7c0.3-0.3,0.3-0.8,0-1.1L17.9,13.2z
	 M18.1,17.9c-0.3,0.3-1.2,0.3-2.2-0.1c-2.6-1-5.7-4-6.7-6.7c-0.4-1-0.4-1.9-0.1-2.2l1.1-1.1l2,2l-1.1,1.1c-0.3,0.3-0.5,0.9,0,1.9
	c0.8,1.5,3.7,4.4,5,3.1l1.1-1.1l2,2L18.1,17.9z"/>
<path class="st0" d="M20.6,2.3H7.9c-2.4,0-4.4,2-4.4,4.4v12.7c0,2.4,2,4.4,4.4,4.4h3.5l2.1,3.6c0.3,0.5,1,0.5,1.4,0l2.1-3.6h3.5
	c2.4,0,4.4-2,4.4-4.4V6.7C24.9,4.3,23,2.3,20.6,2.3L20.6,2.3z M23.4,19.4c0,1.5-1.2,2.8-2.8,2.8h-4c-0.3,0-0.5,0.1-0.7,0.4l-1.7,2.8
	l-1.7-2.8c-0.1-0.2-0.4-0.4-0.7-0.4h-4c-1.5,0-2.8-1.2-2.8-2.8V6.7c0-1.5,1.2-2.8,2.8-2.8h12.7c1.5,0,2.8,1.2,2.8,2.8V19.4z"/>
</svg>
